Units are S.I. units (second, meters, Newtons, ...)
Angles are in degrees.
name walk
datarows 42
datacolumns 15
range 0.000000 0.661290
endheader
time exo_pelvis_tx exo_pelvis_ty exo_pelvis_tz exo_pelvis_tilt exo_pelvis_list exo_pelvis_rotation exo_hip_r exo_hip_l exo_knee_r exo_knee_l r_ankle_coupling l_ankle_coupling r_foot l_foot
0.000000	-0.345526	0.945373	-0.000002	0.000000	0.000000	0.000000	-4.991319	-4.992626	2.132662	2.135478	2.858654	2.857152	0.000111	-0.000097
0.016129	-0.345474	0.945366	-0.000004	0.000000	0.000000	0.000000	-3.550209	-4.920499	0.427895	1.969982	3.090031	2.950499	0.000276	-0.000263
0.032258	-0.345422	0.945358	-0.000007	0.000000	0.000000	0.000000	-2.109100	-4.848373	-1.276872	1.804486	3.321408	3.043846	0.000441	-0.000428
0.048387	-0.345371	0.945351	-0.000009	0.000000	0.000000	0.000000	-0.667990	-4.776246	-2.981639	1.638990	3.552785	3.137193	0.000606	-0.000593
0.064516	-0.345319	0.945343	-0.000012	0.000000	0.000000	0.000000	0.773120	-4.704120	-4.686405	1.473494	3.784162	3.230539	0.000771	-0.000758
0.080645	-0.345267	0.945336	-0.000014	0.000000	0.000000	0.000000	2.214229	-4.631993	-6.391172	1.307998	4.015539	3.323886	0.000935	-0.000924
0.096774	-0.345216	0.945328	-0.000017	0.000000	0.000000	0.000000	3.655339	-4.559867	-8.095939	1.142501	4.246916	3.417233	0.001100	-0.001089
0.112903	-0.345164	0.945321	-0.000019	0.000000	0.000000	0.000000	5.096449	-4.487740	-9.800706	0.977005	4.478293	3.510580	0.001265	-0.001254
0.129032	-0.345112	0.945313	-0.000022	0.000000	0.000000	0.000000	6.537558	-4.415614	-11.505473	0.811509	4.709670	3.603927	0.001430	-0.001419
0.145161	-0.345060	0.945306	-0.000024	0.000000	0.000000	0.000000	7.978668	-4.343487	-13.210240	0.646013	4.941047	3.697274	0.001595	-0.001585
0.161290	-0.345009	0.945298	-0.000027	0.000000	0.000000	0.000000	9.419777	-4.271361	-14.915006	0.480517	5.172424	3.790620	0.001760	-0.001750
0.177419	-0.344957	0.945291	-0.000029	0.000000	0.000000	0.000000	10.860887	-4.199234	-16.619773	0.315021	5.403801	3.883967	0.001924	-0.001915
0.193548	-0.344905	0.945283	-0.000032	0.000000	0.000000	0.000000	12.301997	-4.127107	-18.324540	0.149525	5.635178	3.977314	0.002089	-0.002080
0.209677	-0.344854	0.945276	-0.000034	0.000000	0.000000	0.000000	13.743106	-4.054981	-20.029307	-0.015971	5.866555	4.070661	0.002254	-0.002246
0.225806	-0.344802	0.945268	-0.000037	0.000000	0.000000	0.000000	15.184216	-3.982854	-21.734074	-0.181467	6.097932	4.164008	0.002419	-0.002411
0.241935	-0.344750	0.945261	-0.000039	0.000000	0.000000	0.000000	16.625326	-3.910728	-23.438841	-0.346963	6.329309	4.257355	0.002584	-0.002576
0.258065	-0.344698	0.945254	-0.000042	0.000000	0.000000	0.000000	18.066435	-3.838601	-25.143607	-0.512460	6.560685	4.350701	0.002749	-0.002741
0.274194	-0.344647	0.945246	-0.000044	0.000000	0.000000	0.000000	19.507545	-3.766475	-26.848374	-0.677956	6.792062	4.444048	0.002913	-0.002907
0.290323	-0.344595	0.945239	-0.000047	0.000000	0.000000	0.000000	20.948655	-3.694348	-28.553141	-0.843452	7.023439	4.537395	0.003078	-0.003072
0.306452	-0.344543	0.945231	-0.000049	0.000000	0.000000	0.000000	22.389764	-3.622222	-30.257908	-1.008948	7.254816	4.630742	0.003243	-0.003237
0.322581	-0.344492	0.945224	-0.000052	0.000000	0.000000	0.000000	23.830874	-3.550095	-31.962675	-1.174444	7.486193	4.724089	0.003408	-0.003402
0.338710	-0.344440	0.945216	-0.000054	0.000000	0.000000	0.000000	25.271984	-3.477968	-33.667442	-1.339940	7.717570	4.817436	0.003573	-0.003567
0.354839	-0.344388	0.945209	-0.000057	0.000000	0.000000	0.000000	26.713093	-3.405842	-35.372208	-1.505436	7.948947	4.910782	0.003737	-0.003733
0.370968	-0.344336	0.945201	-0.000059	0.000000	0.000000	0.000000	28.154203	-3.333715	-37.076975	-1.670932	8.180324	5.004129	0.003902	-0.003898
0.387097	-0.344285	0.945194	-0.000062	0.000000	0.000000	0.000000	29.595312	-3.261589	-38.781742	-1.836428	8.411701	5.097476	0.004067	-0.004063
0.403226	-0.344233	0.945186	-0.000064	0.000000	0.000000	0.000000	31.036422	-3.189462	-40.486509	-2.001924	8.643078	5.190823	0.004232	-0.004228
0.419355	-0.344181	0.945179	-0.000067	0.000000	0.000000	0.000000	32.477532	-3.117336	-42.191276	-2.167421	8.874455	5.284170	0.004397	-0.004394
0.435484	-0.344130	0.945171	-0.000069	0.000000	0.000000	0.000000	33.918641	-3.045209	-43.896043	-2.332917	9.105832	5.377517	0.004562	-0.004559
0.451613	-0.344078	0.945164	-0.000072	0.000000	0.000000	0.000000	35.359751	-2.973083	-45.600809	-2.498413	9.337209	5.470863	0.004726	-0.004724
0.467742	-0.344026	0.945156	-0.000074	0.000000	0.000000	0.000000	36.800861	-2.900956	-47.305576	-2.663909	9.568586	5.564210	0.004891	-0.004889
0.483871	-0.343974	0.945149	-0.000077	0.000000	0.000000	0.000000	38.241970	-2.828830	-49.010343	-2.829405	9.799963	5.657557	0.005056	-0.005055
0.500000	-0.343923	0.945141	-0.000079	0.000000	0.000000	0.000000	39.683080	-2.756703	-50.715110	-2.994901	10.031340	5.750904	0.005221	-0.005220
0.516129	-0.341392	0.944804	-0.000077	0.000000	0.000000	0.000000	39.708894	-2.999756	-50.918483	-2.911984	10.241179	5.911063	0.005074	-0.005073
0.532258	-0.338861	0.944466	-0.000075	0.000000	0.000000	0.000000	39.734708	-3.242809	-51.121855	-2.829068	10.451018	6.071222	0.004928	-0.004926
0.548387	-0.336330	0.944129	-0.000072	0.000000	0.000000	0.000000	39.760522	-3.485862	-51.325228	-2.746151	10.660857	6.231381	0.004781	-0.004779
0.564516	-0.333799	0.943792	-0.000070	0.000000	0.000000	0.000000	39.786335	-3.728916	-51.528600	-2.663235	10.870696	6.391540	0.004634	-0.004632
0.580645	-0.331268	0.943454	-0.000068	0.000000	0.000000	0.000000	39.812149	-3.971969	-51.731973	-2.580318	11.080535	6.551699	0.004488	-0.004485
0.596774	-0.328737	0.943117	-0.000066	0.000000	0.000000	0.000000	39.837963	-4.215022	-51.935345	-2.497401	11.290374	6.711857	0.004341	-0.004338
0.612903	-0.326206	0.942779	-0.000063	0.000000	0.000000	0.000000	39.863777	-4.458075	-52.138718	-2.414485	11.500213	6.872016	0.004194	-0.004191
0.629032	-0.323675	0.942442	-0.000061	0.000000	0.000000	0.000000	39.889591	-4.701128	-52.342091	-2.331568	11.710052	7.032175	0.004048	-0.004044
0.645161	-0.321144	0.942105	-0.000059	0.000000	0.000000	0.000000	39.915405	-4.944181	-52.545463	-2.248651	11.919891	7.192334	0.003901	-0.003897
0.661290	-0.318613	0.941767	-0.000057	0.000000	0.000000	0.000000	39.941219	-5.187234	-52.748836	-2.165735	12.129730	7.352493	0.003754	-0.003750
